<?xml version="1.0" encoding="iso-8859-1"?>
<!-- Generator: Adobe Illustrator 13.0.0, SVG Export Plug-In . SVG Version: 6.00 Build 14948)  -->
<!DOCTYPE svg PUBLIC "-//W3C//DTD SVG 1.1//EN" "http://www.w3.org/Graphics/SVG/1.1/DTD/svg11.dtd">
<svg version="1.1" id="Layer_1" xmlns="http://www.w3.org/2000/svg" xmlns:xlink="http://www.w3.org/1999/xlink" x="0px" y="0px"
	 width="100px" height="100px" viewBox="0 0 100 100" enable-background="new 0 0 100 100" xml:space="preserve">
<g>
	<path fill="#49494B" d="M82.847,77.765c-0.004-3.887-3.185-7.071-7.071-7.067l-1.029-0.004c-3.887,0-10.078,1.046-13.752,2.32
		l-32.771,11.4c-3.674,1.274-6.681,4.817-6.681,7.872c0,3.062,3.181,5.56,7.071,5.563l47.158-0.004c3.891,0,7.071-3.181,7.067-7.067
		L82.847,77.765"/>
	<path fill="#272525" d="M82.847,29.396c-0.004-3.889-3.185-7.071-7.071-7.069l-1.029-0.002c-3.887,0-10.078,1.044-13.752,2.318
		l-32.771,11.4c-3.674,1.274-6.681,4.82-6.681,7.874c0,3.058,3.181,5.556,7.071,5.56l47.158-0.004c3.891,0,7.071-3.179,7.067-7.065
		L82.847,29.396"/>
	<path fill="#636365" d="M21.834,71.735c0.008,3.887,3.188,7.071,7.071,7.067l1.034,0.004c3.883,0,10.078-1.046,13.748-2.32
		l32.775-11.399c3.67-1.274,6.677-4.818,6.677-7.872c0-3.062-3.181-5.561-7.071-5.564l-47.154,0.004
		c-3.891,0-7.071,3.181-7.071,7.067L21.834,71.735"/>
	<path fill="#888A8C" d="M19.353,24.599c0.008,3.889,3.188,7.071,7.071,7.069l1.034,0.002c3.883,0,10.078-1.043,13.748-2.318
		l32.775-11.4c3.669-1.274,6.676-4.82,6.676-7.874c0-3.058-3.18-5.558-7.07-5.56L26.432,4.521c-3.891,0-7.071,3.18-7.071,7.067
		L19.353,24.599"/>
</g>
</svg>
